<?xml version="1.0" encoding="utf-8"?>
<!-- Generator: Adobe Illustrator 24.0.1, SVG Export Plug-In . SVG Version: 6.00 Build 0)  -->
<svg version="1.1" id="Layer_1" xmlns="http://www.w3.org/2000/svg" xmlns:xlink="http://www.w3.org/1999/xlink" x="0px" y="0px"
	 viewBox="0 0 256 256" style="enable-background:new 0 0 256 256;" xml:space="preserve">
<style type="text/css">
	.st0{fill-rule:evenodd;clip-rule:evenodd;fill:#FFFFFF;stroke:#000000;stroke-width:2;}
	.st1{fill:none;stroke:#000000;stroke-width:2;}
	.st2{fill:none;stroke:#000000;stroke-linecap:square;}
	.st3{fill-rule:evenodd;clip-rule:evenodd;fill:none;stroke:#000000;}
	.st4{fill-rule:evenodd;clip-rule:evenodd;fill:#FFFFFF;stroke:#000000;}
	.st5{fill-rule:evenodd;clip-rule:evenodd;fill:#FFFFFF;}
</style>
<g id="Laptop" transform="translate(1.000000, 1.000000)">
	<path id="bezel_1_" class="st0" d="M217.9,56.6H35.8c-5,0-9.2,4.1-9.2,9.1v119.8h200.4V65.7C227.1,60.7,222.9,56.6,217.9,56.6z"/>
	<circle id="webcam" class="st1" cx="127.3" cy="63.6" r="1.5">
	</circle>
	<g id="bottom" transform="translate(0.000000, 351.000000)">
		<path id="Shape" class="st0" d="M235.1-154.1H18.7c-11.3,0-18.8-3.9-18.8-5.5v-5c0-0.5,0.5-0.9,1.1-0.9h251.9
			c0.6,0,1.1,0.4,1.1,0.9v5.2C253.9-158.1,248.1-154.1,235.1-154.1z"/>
		<path id="Line" class="st2" d="M0-160.2h253.2"/>
	</g>
	<rect id="screen_1_" x="34.7" y="70.9" class="st3" width="184" height="107.2">
	</rect>
	<path id="touchpad" class="st4" d="M154.4,185.9v1.1c0,0.8-1.6,1.1-2.8,1.1h-49.4c-1.3,0-2.9-0.2-2.9-1.1v-1.1"/>
</g>
<rect x="37.3" y="103.9" class="st5" width="9.3" height="14.2"/>
</svg>
