<?xml version="1.0" encoding="utf-8"?>
<!-- Generator: Adobe Illustrator 24.0.1, SVG Export Plug-In . SVG Version: 6.00 Build 0)  -->
<svg version="1.1" id="Layer_1" xmlns="http://www.w3.org/2000/svg" xmlns:xlink="http://www.w3.org/1999/xlink" x="0px" y="0px"
	 viewBox="0 0 24 24" style="enable-background:new 0 0 24 24;" xml:space="preserve">
<g>
	<path d="M22.5,3.2c0.1,0,0.2,0.1,0.2,0.2v17.1c0,0.1-0.1,0.2-0.2,0.2H1.9c-0.1,0-0.2-0.1-0.2-0.2V3.4c0-0.1,0.1-0.2,0.2-0.2H22.5
		 M22.5,3H1.9C1.7,3,1.5,3.2,1.5,3.4v17.1c0,0.2,0.2,0.4,0.4,0.4h20.6c0.2,0,0.4-0.2,0.4-0.4V3.4C23,3.2,22.8,3,22.5,3L22.5,3z"/>
</g>
<title>Gmail icon</title>
<path d="M24,4.5v15c0,0.9-0.6,1.5-1.5,1.5H21V7.4l-9,6.5L3,7.4V21H1.5C0.6,21,0,20.4,0,19.5v-15c0-0.4,0.2-0.8,0.4-1.1
	C0.7,3.2,1.1,3,1.5,3H2l10,7.2L22,3h0.5c0.4,0,0.8,0.2,1.1,0.4C23.8,3.7,24,4.1,24,4.5z"/>
</svg>
