<?xml version="1.0" encoding="utf-8"?>
<!-- Generator: Adobe Illustrator 24.0.1, SVG Export Plug-In . SVG Version: 6.00 Build 0)  -->
<svg version="1.1" id="Layer_1" xmlns="http://www.w3.org/2000/svg" xmlns:xlink="http://www.w3.org/1999/xlink" x="0px" y="0px"
	 viewBox="0 0 256 256" style="enable-background:new 0 0 256 256;" xml:space="preserve">
<style type="text/css">
	.st0{fill:#FFFFFF;}
</style>
<title>Artboard 1</title>
<ellipse id="ellipse4" class="st0" cx="128.3" cy="128.4" rx="128.3" ry="127.1"/>
<path d="M236.9,60.4c-6.1-9.5-13.4-18.3-21.6-26C158.3,19,98.1,19.2,41.2,35C33,42.6,25.8,51.1,19.6,60.4
	C88.9,43.3,167.6,43.3,236.9,60.4z"/>
<path d="M144.1,78.8c8.3-11.4,13.4-19.7,16.5-23.5C111.1,51.5,60.9,56,15.2,68.7C12,75,8.8,82,6.3,88.4C51.8,81,98,77.8,144.1,78.8z
	"/>
<path d="M124.4,178c-5.1,7.6-11.4,15.9-17.2,24.1c45.8,1.9,92.1-2.5,134.7-14c3.3-6.4,6.3-13,8.9-19.7c-38.1,7-80.1,10.2-122,10.2
	C127,178.6,125.7,178,124.4,178z"/>
<path d="M139.7,85.2C93.3,84.6,46.9,87.7,4.4,96c-1.4,5.9-2.5,11.8-3.2,17.8c38.1-2.5,80.1-3.8,122.6-3.8
	C129.5,100.4,134.6,92.2,139.7,85.2z"/>
<path d="M102.2,208.5c-7,9.5-13.3,18.4-17.2,22.2c43.4,5.6,87.4,2.6,129.6-8.9c8.4-7.6,15.7-16.4,21.6-26.1
	c-35.3,9-71.6,13.4-108,13.3C119.4,209.1,111.1,209.1,102.2,208.5z"/>
<path d="M202.6,24.8C158-6.5,98.5-6.5,53.9,24.8C102.8,13.4,153.7,13.4,202.6,24.8z"/>
<path d="M149.2,140.5c36.8-0.6,73.1-1.3,106.7-3.8v-16.5c-29.2-1.9-59.7-3.2-91.5-3.2C159.4,124.6,155,131.6,149.2,140.5z"/>
<path d="M168.9,110c29.9,0.6,59.1,1.9,87.1,3.2c-0.7-6-1.8-11.9-3.2-17.8c-22.2-3.8-45.1-7-68.6-8.3C177.8,96,172.7,103.6,168.9,110
	z"/>
<path d="M118.7,116.3c-24.8,0-48.9,0.6-73.1,1.3c2.5,5.1,7,14,11.4,21.6c15.3,0.6,30.5,0.6,45.7,1.3
	C107.9,133.5,113,125.2,118.7,116.3z"/>
<path d="M61.5,146.2c0.1,0.5,0.3,0.9,0.6,1.3c3.8,6.4,8.3,12.7,11.4,17.8c1.3,1.3,1.9,3.2,2.5,4.4c1.1,1.8,2.4,3.5,3.8,5.1
	c0,0,1.3-1.9,3.2-5.1c0.6-1.3,1.9-2.5,3.2-4.4c3.2-4.4,7-10.8,12.1-18.4C86.3,146.8,73.6,146.8,61.5,146.2z"/>
<path d="M128.9,171.6c41.3,0,82.6-3.6,123.3-10.8c1.4-5.9,2.5-11.8,3.2-17.8c-35,1.9-72.4,3.2-110.6,3.8
	C141,153.8,135.2,162.1,128.9,171.6z"/>
<path d="M24.1,144.9c-7.6-0.6-15.9-0.6-23.5-1.3c0.7,6,1.8,11.9,3.2,17.8c10.2,1.9,20.3,3.2,31.1,5.1
	C30.4,158.3,27.2,150.6,24.1,144.9z"/>
<path d="M55.8,196.4c-5.8-7.3-11.1-14.9-15.9-22.9c-11.4-1.3-22.2-3.2-33-5.1c2.3,6.8,5.3,13.4,8.9,19.7c13.3,3.8,27.3,6.4,41.3,8.9
	C56.8,196.7,56.3,196.4,55.8,196.4z"/>
<path d="M62.2,204.6c-14.6-1.9-28.6-5.1-42.6-8.3c6.1,9.5,13.4,18.3,21.6,26.1c13.5,3.9,27.3,6.9,41.3,8.9
	C74.2,220.5,67.9,212.3,62.2,204.6z"/>
<path d="M53.9,232c44.6,31.3,104.1,31.3,148.7,0c-24.4,5.6-49.3,8.4-74.3,8.3C103.2,240.4,78.3,237.6,53.9,232z"/>
</svg>
