<?xml version="1.0" encoding="utf-8"?>
<!-- Generator: Adobe Illustrator 24.0.1, SVG Export Plug-In . SVG Version: 6.00 Build 0)  -->
<svg version="1.1" id="Layer_1" xmlns="http://www.w3.org/2000/svg" xmlns:xlink="http://www.w3.org/1999/xlink" x="0px" y="0px"
	 viewBox="0 0 124.6 256" style="enable-background:new 0 0 124.6 256;" xml:space="preserve">
<style type="text/css">
	.st0{fill-rule:evenodd;clip-rule:evenodd;fill:#FFFFFF;stroke:#000000;stroke-width:2;}
	.st1{fill-rule:evenodd;clip-rule:evenodd;fill:#FFFFFF;stroke:#000000;}
	.st2{fill:none;stroke:#000000;}
</style>
<g id="iphone" transform="translate(576.000000, 177.000000)">
	<path id="bezel_2_" class="st0" d="M-453.2,63.2c0,8.2-6.7,14.8-14.9,14.8h-90.8c-8.2,0-14.9-6.6-14.9-14.8v-224.3
		c0-8.2,6.7-14.8,14.9-14.8h90.8c8.2,0,14.9,6.6,14.9,14.8V63.2L-453.2,63.2z"/>
	<rect id="screen_2_" x="-565.4" y="-142.6" class="st1" width="103.8" height="184.6">
	</rect>
	<path id="speaker" class="st2" d="M-502.3-152.2c0,0.6-0.4,1.1-0.9,1.1h-18.6c-0.5,0-0.9-0.5-0.9-1.1v-2.4c0-0.6,0.4-1.1,0.9-1.1
		h18.6c0.5,0,0.9,0.5,0.9,1.1V-152.2L-502.3-152.2z"/>
	<circle id="camera_1_" class="st2" cx="-512.5" cy="-164.9" r="2.8">
	</circle>
	<ellipse id="lock_1_" class="st2" cx="-513.4" cy="59.5" rx="9.3" ry="9.3">
	</ellipse>
</g>
</svg>
